<svg xmlns="http://www.w3.org/2000/svg" viewBox="0 0 134.74 127.99"><defs><style>.cls-1{fill:#fff;}</style></defs><title>isotipo-bancamiga001</title><g id="Capa_2" data-name="Capa 2"><g id="Capa_1-2" data-name="Capa 1"><path class="cls-1" d="M26.59,13.73a32.15,32.15,0,0,1,14.06,3.53,33,33,0,0,1,12.09,9.88,19.76,19.76,0,0,1,3.86,8.48,14.07,14.07,0,0,1-3,11.48c-2.65,3.37-5.37,6.69-7.82,10.2a93.68,93.68,0,0,0-9.67,17.15,55.41,55.41,0,0,0-4.29,15.92,32.59,32.59,0,0,0,2.48,17,29.44,29.44,0,0,0,10,11.92c.82.58,1.68,1.11,2.53,1.64.24.16.3.26.13.52-.34.55-.65,1.11-1,1.67-.13.24-.23.3-.51.14a100.19,100.19,0,0,1-16.26-11.65,97.87,97.87,0,0,1-11.1-11.48A84.5,84.5,0,0,1,4.1,75.79,64,64,0,0,1,0,53.5,51.53,51.53,0,0,1,5.49,29.69a39.82,39.82,0,0,1,9.17-11.88A16.51,16.51,0,0,1,23.19,14,25.86,25.86,0,0,1,26.59,13.73Z"/><path class="cls-1" d="M90.47,128a73.92,73.92,0,0,1-26.7-4.89,68.52,68.52,0,0,1-14-7,25,25,0,0,1-10.55-13.76A20.76,20.76,0,0,1,40.7,85.72a18.29,18.29,0,0,1,12.23-9.19,22.75,22.75,0,0,1,13.91,1.32,44.51,44.51,0,0,1,9.37,5.45c5.55,3.9,11.19,7.66,17.07,11a101.26,101.26,0,0,0,15.12,7.31,43.48,43.48,0,0,0,8.9,2.38,18.88,18.88,0,0,0,7.74-.28,11.38,11.38,0,0,0,7.83-7.34c.15-.38.37-.94.46-1.14a0,0,0,0,1,0,0c.24.14,1.21.86,1.35,1s0,0,0,0-.07.27-.11.41a44.24,44.24,0,0,1-9.41,16.84,42,42,0,0,1-14.06,10.19,47.54,47.54,0,0,1-12.72,3.67A51.7,51.7,0,0,1,90.47,128Z"/><path class="cls-1" d="M46.33,0l1.44.06C49.4.19,51,.3,52.65.5A79.32,79.32,0,0,1,69,4.31,94.15,94.15,0,0,1,92,15.81a58.27,58.27,0,0,1,8.42,6.68,23.62,23.62,0,0,1,6,9.37,13.05,13.05,0,0,1,.41,7.77,8.09,8.09,0,0,1-6.9,6,15.14,15.14,0,0,1-8.29-1.2,37.16,37.16,0,0,1-9.46-5.87c-5-4-10.22-7.89-15.55-11.51a138.87,138.87,0,0,0-22.94-13A58.67,58.67,0,0,0,29.5,9.75a27.29,27.29,0,0,0-11.86.47,18.86,18.86,0,0,0-6.73,3.51c-.11.09-.22.2-.27.25h-.07L8.38,12.42a0,0,0,0,1,0-.07,49.33,49.33,0,0,1,8.68-5.89,55.48,55.48,0,0,1,19.41-6C37.81.28,39.18.19,40.54.07L42.16,0h4.17Z"/><path class="cls-1" d="M132.34,77.05a46.85,46.85,0,0,1-1.94,14.7A11.11,11.11,0,0,1,126.14,98a10.16,10.16,0,0,1-6.91,1.69c-5.22-.5-9.38-3.07-12.91-6.78a23.91,23.91,0,0,1-6-10.6,18,18,0,0,1,1.6-13.44,94,94,0,0,0,5.73-12.8,49.73,49.73,0,0,0,2.81-12.38,29.66,29.66,0,0,0-.7-9.71c-1.51-6.08-5-10.87-9.7-14.88l-.6-.53a0,0,0,0,1,0-.05l.66-.77a0,0,0,0,1,0,0l.27.23c1.86,1.54,3.67,3.13,5.42,4.8a98,98,0,0,1,11.45,13,84.42,84.42,0,0,1,9.68,17,71.46,71.46,0,0,1,4.4,14.77A55.1,55.1,0,0,1,132.34,77.05Z"/></g></g></svg>