<svg xmlns="http://www.w3.org/2000/svg" viewBox="0 0 647.84 127.99"><defs><style>.cls-1{fill:#004987;}.cls-2{fill:#61a60e;}</style></defs><title>logo-bancamiga_2</title><g id="Capa_2" data-name="Capa 2"><g id="Capa_1-2" data-name="Capa 1"><path class="cls-1" d="M155.12,94.35v-69H166q9.43,0,13.8,1.22a18.46,18.46,0,0,1,9.86,6.1,16,16,0,0,1,3.66,10.5,15.31,15.31,0,0,1-1.66,7.15,18.06,18.06,0,0,1-5.42,6,21.55,21.55,0,0,1,9.19,7.39,18.65,18.65,0,0,1,2.91,10.48,19.57,19.57,0,0,1-3,10.6A19.31,19.31,0,0,1,187.55,92q-4.74,2.36-13.09,2.36ZM168.24,37.9V52.44h2.88c3.2,0,5.57-.68,7.13-2a6.88,6.88,0,0,0,2.33-5.49,6.41,6.41,0,0,0-2.22-5.13q-2.21-1.9-6.73-1.9Zm0,26.26V81.83h3.3q8.18,0,11-2.06a6.93,6.93,0,0,0,2.84-6,8.41,8.41,0,0,0-3.33-7q-3.34-2.58-11.1-2.58Z"/><path class="cls-1" d="M242.74,43.34h12.8v51h-12.8V89a25.05,25.05,0,0,1-7.52,5.14,21.13,21.13,0,0,1-8.17,1.57A22.7,22.7,0,0,1,210,88q-7.22-7.66-7.22-19.06,0-11.82,7-19.36a22.2,22.2,0,0,1,17-7.55,21.52,21.52,0,0,1,8.62,1.73A23.52,23.52,0,0,1,242.74,49Zm-13.45,10.5a12.91,12.91,0,0,0-9.86,4.2A15.11,15.11,0,0,0,215.5,68.8a15.3,15.3,0,0,0,4,10.88,13,13,0,0,0,9.84,4.26,13.17,13.17,0,0,0,10-4.19q4-4.2,4-11a14.88,14.88,0,0,0-4-10.78A13.36,13.36,0,0,0,229.29,53.84Z"/><path class="cls-1" d="M264.16,43.34H277v5.23a30.65,30.65,0,0,1,7.89-5.11A19,19,0,0,1,292.09,42,17.52,17.52,0,0,1,305,47.32c3,3,4.45,7.44,4.45,13.32V94.35H296.75V72q0-9.12-.82-12.13a8.3,8.3,0,0,0-2.85-4.56,8,8,0,0,0-5-1.57,9.45,9.45,0,0,0-6.67,2.6,13.92,13.92,0,0,0-3.86,7.19Q277,65.93,277,73.89V94.35h-12.8Z"/><path class="cls-1" d="M367.4,53.65l-10.66,5.87a18.14,18.14,0,0,0-5.93-4.37,17.92,17.92,0,0,0-6.88-1.21q-7.19,0-11.62,4.28a14.59,14.59,0,0,0-4.44,11,14.08,14.08,0,0,0,4.28,10.62q4.26,4.13,11.21,4.12,8.59,0,13.38-5.86L366.84,85q-8.2,10.68-23.16,10.68-13.47,0-21.08-8A26.51,26.51,0,0,1,329,45.59,30.83,30.83,0,0,1,343.86,42a30.07,30.07,0,0,1,13.65,3A26,26,0,0,1,367.4,53.65Z"/><path class="cls-1" d="M412.27,43.34h12.79v51H412.27V89a25.17,25.17,0,0,1-7.52,5.14,21.16,21.16,0,0,1-8.17,1.57A22.72,22.72,0,0,1,379.48,88q-7.22-7.66-7.21-19.06,0-11.82,7-19.36A22.2,22.2,0,0,1,396.2,42a21.52,21.52,0,0,1,8.62,1.73A23.55,23.55,0,0,1,412.27,49Zm-13.46,10.5A12.91,12.91,0,0,0,389,58,15.11,15.11,0,0,0,385,68.8a15.27,15.27,0,0,0,4,10.88,13,13,0,0,0,9.84,4.26,13.19,13.19,0,0,0,10-4.19,15.39,15.39,0,0,0,4-11,14.92,14.92,0,0,0-4-10.78A13.37,13.37,0,0,0,398.81,53.84Z"/><path class="cls-1" d="M433.59,43.34h12.8V49.2a21.79,21.79,0,0,1,7.3-5.39A21.26,21.26,0,0,1,462.44,42a16.26,16.26,0,0,1,8.63,2.34,17,17,0,0,1,6.2,6.85A20.14,20.14,0,0,1,494.44,42,17.9,17.9,0,0,1,504,44.56a14.61,14.61,0,0,1,5.93,6.61q1.81,4.08,1.81,13.27V94.35H498.86V68.47q0-8.67-2.16-11.74a7.38,7.38,0,0,0-6.47-3.08,9.8,9.8,0,0,0-5.88,1.88,11,11,0,0,0-3.87,5.18q-1.28,3.32-1.27,10.62v23H466.32V69.64c0-4.56-.34-7.87-1-9.91a9.11,9.11,0,0,0-3-4.58,8.05,8.05,0,0,0-4.89-1.5,9.69,9.69,0,0,0-5.81,1.9,11.47,11.47,0,0,0-3.9,5.32q-1.29,3.43-1.29,10.79V94.35h-12.8Z"/><path class="cls-1" d="M524.62,22.33a7.84,7.84,0,0,1,5.77,2.44,8.1,8.1,0,0,1,2.41,5.91,8,8,0,0,1-2.39,5.84,7.73,7.73,0,0,1-5.7,2.41,7.86,7.86,0,0,1-5.82-2.46,8.25,8.25,0,0,1-2.41-6,8.16,8.16,0,0,1,8.14-8.16Zm-6.4,21H531v51h-12.8Z"/><path class="cls-1" d="M576,43.34h12.75V87q0,12.94-5.2,19-7,8.27-21.05,8.26a36.89,36.89,0,0,1-12.62-1.88,22.7,22.7,0,0,1-8.62-5.51,22.44,22.44,0,0,1-5.21-8.84h14.11a11.7,11.7,0,0,0,4.84,3.26,19.82,19.82,0,0,0,7,1.1,18.48,18.48,0,0,0,8.3-1.59,9.62,9.62,0,0,0,4.43-4.13Q576,94.22,576,88a21.3,21.3,0,0,1-7.08,4.86,22.61,22.61,0,0,1-8.39,1.47A23.09,23.09,0,0,1,543.2,87q-7.08-7.41-7.08-18.76,0-12.15,7.5-19.51A22.42,22.42,0,0,1,559.84,42a21.76,21.76,0,0,1,8.33,1.61A26.34,26.34,0,0,1,576,49ZM562.75,54a13.32,13.32,0,0,0-10,4.06,14,14,0,0,0-3.94,10.2,14.23,14.23,0,0,0,4,10.45A13.63,13.63,0,0,0,563,82.77a13.12,13.12,0,0,0,9.82-4,14.39,14.39,0,0,0,3.87-10.46A14.19,14.19,0,0,0,572.78,58,13.38,13.38,0,0,0,562.75,54Z"/><path class="cls-1" d="M635,43.34h12.8v51H635V89a25.14,25.14,0,0,1-7.51,5.14,21.2,21.2,0,0,1-8.17,1.57A22.72,22.72,0,0,1,602.26,88q-7.21-7.66-7.21-19.06,0-11.82,7-19.36A22.2,22.2,0,0,1,619,42a21.52,21.52,0,0,1,8.62,1.73A23.4,23.4,0,0,1,635,49Zm-13.45,10.5a12.91,12.91,0,0,0-9.86,4.2A15.11,15.11,0,0,0,607.8,68.8a15.27,15.27,0,0,0,4,10.88,12.94,12.94,0,0,0,9.83,4.26,13.16,13.16,0,0,0,10-4.19q4-4.2,4-11a14.88,14.88,0,0,0-4-10.78A13.33,13.33,0,0,0,621.59,53.84Z"/><path class="cls-2" d="M26.59,13.73a32.15,32.15,0,0,1,14.06,3.53,33,33,0,0,1,12.09,9.88,19.76,19.76,0,0,1,3.86,8.48,14.07,14.07,0,0,1-3,11.48c-2.65,3.37-5.37,6.69-7.82,10.2a93.68,93.68,0,0,0-9.67,17.15,55.41,55.41,0,0,0-4.29,15.92,32.59,32.59,0,0,0,2.48,17,29.44,29.44,0,0,0,10,11.92c.82.58,1.68,1.11,2.53,1.64.24.16.3.26.13.52-.34.54-.65,1.11-1,1.67-.13.24-.23.3-.51.14a100.19,100.19,0,0,1-16.26-11.65,97.87,97.87,0,0,1-11.1-11.48A84.5,84.5,0,0,1,4.1,75.79,64,64,0,0,1,0,53.5,51.53,51.53,0,0,1,5.49,29.69a39.82,39.82,0,0,1,9.17-11.88A16.51,16.51,0,0,1,23.19,14,25.86,25.86,0,0,1,26.59,13.73Z"/><path class="cls-2" d="M90.47,128a73.92,73.92,0,0,1-26.7-4.89,68.52,68.52,0,0,1-14-7,25,25,0,0,1-10.55-13.76A20.76,20.76,0,0,1,40.7,85.72a18.29,18.29,0,0,1,12.23-9.19,22.75,22.75,0,0,1,13.91,1.32,44.51,44.51,0,0,1,9.37,5.45c5.55,3.9,11.19,7.66,17.07,11a101.26,101.26,0,0,0,15.12,7.31,43.48,43.48,0,0,0,8.9,2.38,18.88,18.88,0,0,0,7.74-.28,11.38,11.38,0,0,0,7.83-7.34c.15-.38.37-.94.46-1.14a0,0,0,0,1,0,0c.24.14,1.21.86,1.35,1s0,0,0,0-.07.27-.11.41a44.24,44.24,0,0,1-9.41,16.84,42,42,0,0,1-14.06,10.19,47.54,47.54,0,0,1-12.72,3.67A51.7,51.7,0,0,1,90.47,128Z"/><path class="cls-2" d="M46.33,0l1.44.06C49.4.19,51,.3,52.65.5A79.32,79.32,0,0,1,69,4.31,94.15,94.15,0,0,1,92,15.81a58.27,58.27,0,0,1,8.42,6.68,23.62,23.62,0,0,1,6,9.37,13.05,13.05,0,0,1,.41,7.77,8.09,8.09,0,0,1-6.9,6,15.14,15.14,0,0,1-8.29-1.2,37.16,37.16,0,0,1-9.46-5.87c-5-4-10.22-7.89-15.55-11.51a138.87,138.87,0,0,0-22.94-13A58.67,58.67,0,0,0,29.5,9.75a27.29,27.29,0,0,0-11.86.47,18.86,18.86,0,0,0-6.73,3.51c-.11.09-.22.2-.27.25h-.07L8.38,12.42a0,0,0,0,1,0-.07,49.33,49.33,0,0,1,8.68-5.89,55.48,55.48,0,0,1,19.41-6C37.81.28,39.18.19,40.54.07L42.16,0h4.17Z"/><path class="cls-2" d="M132.34,77.05a46.85,46.85,0,0,1-1.94,14.7A11.11,11.11,0,0,1,126.14,98a10.16,10.16,0,0,1-6.91,1.69c-5.22-.5-9.38-3.07-12.91-6.78a23.91,23.91,0,0,1-6-10.6,18,18,0,0,1,1.6-13.44,94,94,0,0,0,5.73-12.8,49.73,49.73,0,0,0,2.81-12.38,29.66,29.66,0,0,0-.7-9.71c-1.51-6.08-5-10.87-9.7-14.88l-.6-.53a0,0,0,0,1,0-.05l.66-.77a0,0,0,0,1,0,0l.27.23c1.86,1.54,3.67,3.13,5.42,4.8a98,98,0,0,1,11.45,13,84.42,84.42,0,0,1,9.68,17,71.46,71.46,0,0,1,4.4,14.77A55.1,55.1,0,0,1,132.34,77.05Z"/><path class="cls-1" d="M155.1,123.37v-20h3.14a16.66,16.66,0,0,1,4,.35,5.36,5.36,0,0,1,2.85,1.77,4.62,4.62,0,0,1,1.06,3,4.45,4.45,0,0,1-.48,2.07,5.28,5.28,0,0,1-1.57,1.75,6.22,6.22,0,0,1,2.66,2.13,5.36,5.36,0,0,1,.85,3,5.66,5.66,0,0,1-.87,3.07,5.58,5.58,0,0,1-2.25,2.07,8.55,8.55,0,0,1-3.79.69ZM158.9,107v4.21h.83a3.1,3.1,0,0,0,2.07-.59,2,2,0,0,0,.67-1.59,1.83,1.83,0,0,0-.64-1.48,2.89,2.89,0,0,0-2-.55Zm0,7.6v5.12h.95a5.9,5.9,0,0,0,3.2-.6,2,2,0,0,0,.82-1.74,2.41,2.41,0,0,0-1-2,5.3,5.3,0,0,0-3.21-.75Z"/><path class="cls-1" d="M182,108.59h3.71v14.78H182V121.8a7.25,7.25,0,0,1-2.18,1.49,6,6,0,0,1-2.37.46,6.6,6.6,0,0,1-5-2.22,7.76,7.76,0,0,1-2.09-5.52,7.91,7.91,0,0,1,2-5.61,6.42,6.42,0,0,1,4.91-2.19,6.33,6.33,0,0,1,2.49.5,6.88,6.88,0,0,1,2.16,1.51Zm-3.9,3a3.76,3.76,0,0,0-2.86,1.22,4.41,4.41,0,0,0-1.13,3.11,4.46,4.46,0,0,0,1.15,3.16,4,4,0,0,0,5.75,0,4.45,4.45,0,0,0,1.15-3.19,4.29,4.29,0,0,0-1.15-3.12A3.87,3.87,0,0,0,178.11,111.63Z"/><path class="cls-1" d="M189.74,108.59h3.71v1.51a8.89,8.89,0,0,1,2.28-1.47,5.54,5.54,0,0,1,2.1-.42,5.09,5.09,0,0,1,3.73,1.53,5.28,5.28,0,0,1,1.29,3.86v9.77h-3.67V116.9a16.22,16.22,0,0,0-.24-3.52,2.2,2.2,0,0,0-2.28-1.77,2.74,2.74,0,0,0-1.93.75,4,4,0,0,0-1.12,2.08,16.72,16.72,0,0,0-.16,3v5.93h-3.71Z"/><path class="cls-1" d="M221.17,111.58l-3.08,1.7a5.35,5.35,0,0,0-1.72-1.27,5.3,5.3,0,0,0-2-.35A4.63,4.63,0,0,0,211,112.9a4.23,4.23,0,0,0-1.29,3.18,4.11,4.11,0,0,0,1.24,3.08,4.52,4.52,0,0,0,3.25,1.19,4.72,4.72,0,0,0,3.88-1.7l2.92,2a9,9,0,0,1-12.81.79,7.77,7.77,0,0,1-1.14-9.36,7.67,7.67,0,0,1,3-2.84,8.9,8.9,0,0,1,4.3-1,8.66,8.66,0,0,1,3.95.88A7.39,7.39,0,0,1,221.17,111.58Z"/><path class="cls-1" d="M231.73,108.21a7.77,7.77,0,0,1,3.93,1.05,7.53,7.53,0,0,1,2.88,2.83,7.73,7.73,0,0,1,1,3.87,7.82,7.82,0,0,1-1,3.92,7.49,7.49,0,0,1-2.83,2.84,7.86,7.86,0,0,1-3.95,1,7.41,7.41,0,0,1-5.43-2.26,7.84,7.84,0,0,1,.29-11.27A7.43,7.43,0,0,1,231.73,108.21Zm.06,3.49a3.8,3.8,0,0,0-2.87,1.2,4.26,4.26,0,0,0-1.15,3.08,4.32,4.32,0,0,0,1.13,3.12,3.8,3.8,0,0,0,2.88,1.2,3.87,3.87,0,0,0,2.9-1.21,4.79,4.79,0,0,0,0-6.2A3.87,3.87,0,0,0,231.79,111.7Z"/><path class="cls-1" d="M251.21,103.39H255v12.92a6.82,6.82,0,0,0,.29,2.36,2.35,2.35,0,0,0,1,1.1,3,3,0,0,0,1.62.42,3.13,3.13,0,0,0,1.73-.46,2.44,2.44,0,0,0,1-1.18,8.85,8.85,0,0,0,.28-2.72V103.39h3.81V115.3a17.06,17.06,0,0,1-.34,4.18,6,6,0,0,1-1.29,2.26,6.14,6.14,0,0,1-2.21,1.61,7.64,7.64,0,0,1-2.91.52,7,7,0,0,1-3.78-1,5.78,5.78,0,0,1-2.3-2.5,13.23,13.23,0,0,1-.69-5.07Z"/><path class="cls-1" d="M269,108.59h3.7v1.51a8.92,8.92,0,0,1,2.29-1.47,5.45,5.45,0,0,1,2.09-.42,5.07,5.07,0,0,1,3.73,1.53,5.28,5.28,0,0,1,1.29,3.86v9.77h-3.67V116.9a16.44,16.44,0,0,0-.23-3.52,2.42,2.42,0,0,0-.83-1.32,2.33,2.33,0,0,0-1.46-.45,2.74,2.74,0,0,0-1.93.75,4,4,0,0,0-1.11,2.08,16.38,16.38,0,0,0-.17,3v5.93H269Z"/><path class="cls-1" d="M287.43,102.51a2.25,2.25,0,0,1,1.67.7,2.43,2.43,0,0,1,0,3.4,2.22,2.22,0,0,1-1.65.7,2.27,2.27,0,0,1-1.69-.71,2.39,2.39,0,0,1-.7-1.73,2.37,2.37,0,0,1,2.36-2.36Zm-1.85,6.08h3.7v14.78h-3.7Z"/><path class="cls-1" d="M291.35,108.59h3.78l3.73,8.72,3.72-8.72h3.76l-6.29,14.78h-2.4Z"/><path class="cls-1" d="M323.59,117.05H311.68a4,4,0,0,0,1.38,2.51,4.31,4.31,0,0,0,2.85.93,5,5,0,0,0,3.58-1.46l3.12,1.47a7.32,7.32,0,0,1-2.8,2.45,8.7,8.7,0,0,1-3.87.8,7.66,7.66,0,0,1-5.66-2.2,7.45,7.45,0,0,1-2.19-5.49,7.75,7.75,0,0,1,2.18-5.62,7.37,7.37,0,0,1,5.47-2.23,7.59,7.59,0,0,1,5.67,2.23,8.08,8.08,0,0,1,2.19,5.91Zm-3.71-2.92a3.78,3.78,0,0,0-1.45-2,4.24,4.24,0,0,0-2.51-.77,4.44,4.44,0,0,0-2.72.87,4.86,4.86,0,0,0-1.36,1.91Z"/><path class="cls-1" d="M326,108.59h3.18v1.86a4,4,0,0,1,1.37-1.67,3.29,3.29,0,0,1,1.87-.57,3.54,3.54,0,0,1,1.51.38l-1.15,3.19a2.54,2.54,0,0,0-1.08-.32,1.68,1.68,0,0,0-1.44,1.06,9.52,9.52,0,0,0-.6,4.15l0,.72v6H326Z"/><path class="cls-1" d="M345.08,110.65l-2.29,2.3a3.9,3.9,0,0,0-2.54-1.39,1.58,1.58,0,0,0-1,.27.82.82,0,0,0-.35.66.8.8,0,0,0,.22.55,4.17,4.17,0,0,0,1.11.68l1.36.68a8,8,0,0,1,2.94,2.16,4.48,4.48,0,0,1-.64,5.87,5.53,5.53,0,0,1-3.88,1.32,6.19,6.19,0,0,1-5.16-2.53l2.28-2.48a5.46,5.46,0,0,0,1.53,1.22,3.31,3.31,0,0,0,1.56.47,1.82,1.82,0,0,0,1.18-.35,1,1,0,0,0,.45-.82c0-.57-.54-1.12-1.62-1.67L339,117q-3.58-1.8-3.58-4.52a3.94,3.94,0,0,1,1.35-3,4.89,4.89,0,0,1,3.45-1.24,6,6,0,0,1,4.86,2.44Z"/><path class="cls-1" d="M359.46,108.59h3.71v14.78h-3.71V121.8a7.13,7.13,0,0,1-2.18,1.49,6,6,0,0,1-2.37.46,6.6,6.6,0,0,1-5-2.22,7.75,7.75,0,0,1-2.08-5.52,7.9,7.9,0,0,1,2-5.61,6.42,6.42,0,0,1,4.91-2.19,6.29,6.29,0,0,1,2.49.5,6.88,6.88,0,0,1,2.16,1.51Zm-3.9,3a3.74,3.74,0,0,0-2.85,1.22,4.37,4.37,0,0,0-1.14,3.11,4.42,4.42,0,0,0,1.16,3.16,3.75,3.75,0,0,0,2.85,1.23,3.81,3.81,0,0,0,2.89-1.21,4.45,4.45,0,0,0,1.15-3.19,4.29,4.29,0,0,0-1.15-3.12A3.87,3.87,0,0,0,355.56,111.63Z"/><path class="cls-1" d="M366.79,102.89h3.7v20.48h-3.7Z"/></g></g></svg>